# xmcd CD database file
#
# Track frame offsets:
#	150
#	30895
#	58710
#	96715
#	136067
#	161720
#	178722
#	211857
#	241762
#
# Disc length: 3614 seconds
#
# Revision: 0
# Processed by: cddbd v1.5.1PL0 Copyright (c) Steve Scherf et al.
# Submitted via: CDex 1.51
#
DISCID=720e1c09
DTITLE=Roberta Piket - Unbroken Line
DYEAR=1997
DGENRE=Jazz
TTITLE0=Brookland
TTITLE1=Always
TTITLE2=End of a Love Affair
TTITLE3=Long, Long Wait
TTITLE4=Daily Affirmation
TTITLE5=Threnody
TTITLE6=You'll Never Walk Alone - Some Enchanted Evening
TTITLE7=Second Guess
TTITLE8=Unbroken Line
EXTD=YEAR: 1997
EXTT0=
EXTT1=
EXTT2=
EXTT3=
EXTT4=
EXTT5=
EXTT6=
EXTT7=
EXTT8=
PLAYORDER=
